<?xml version="1.0" ?><svg height="200" id="svg2" version="1.1" width="200" xmlns="http://www.w3.org/2000/svg" xmlns:cc="http://creativecommons.org/ns#" xmlns:dc="http://purl.org/dc/elements/1.1/" xmlns:inkscape="http://www.inkscape.org/namespaces/inkscape" xmlns:rdf="http://www.w3.org/1999/02/22-rdf-syntax-ns#" xmlns:sodipodi="http://sodipodi.sourceforge.net/DTD/sodipodi-0.dtd" xmlns:svg="http://www.w3.org/2000/svg"><defs id="defs4"><clipPath clipPathUnits="userSpaceOnUse" id="clipPath18"><path d="m 0,551.986 530.973,0 L 530.973,0 0,0 0,551.986 z" id="path20"/></clipPath><clipPath clipPathUnits="userSpaceOnUse" id="clipPath18-7"><path d="m 0,551.986 530.973,0 L 530.973,0 0,0 0,551.986 z" id="path20-4"/></clipPath></defs><g id="layer1" style="display:inline" transform="translate(0,-852.36218)"><path d="m 100,862.36223 c -49.70563,0 -90,40.29437 -90,90 0,49.70567 40.29437,89.99997 90,89.99997 0.75044,0 1.47964,-0.084 2.21875,-0.125 0.26003,-0.014 0.52093,-0.018 0.78125,-0.031 0.93792,-0.046 1.87645,-0.096 2.8125,-0.1562 3.05043,-0.1958 6.04361,-0.5864 9,-1.0938 3.40887,-0.585 6.76448,-1.335 10.03125,-2.2812 5.67307,-1.6433 11.11833,-3.782 16.28125,-6.4375 18.08925,-9.3041 32.44221,-24.6105 40.78125,-43.21877 0.0631,-0.14086 0.15632,-0.26501 0.21875,-0.40625 1.70139,-3.84911 3.2178,-7.79522 4.375,-11.90625 0.67583,-2.40093 1.16632,-4.87165 1.65625,-7.34375 0.1628,-0.82145 0.4264,-1.606 0.5625,-2.4375 0.59899,-3.6596 0.95632,-7.39741 1.125,-11.1875 0.05,-1.12451 0.15625,-2.23807 0.15625,-3.375 0,-3.65022 -0.29637,-7.21352 -0.71875,-10.75 -0.0857,-0.71775 -0.24127,-1.41252 -0.34375,-2.125 C 182.66932,895.90736 145.31458,862.36243 100,862.36243 z" id="path6770" style="fill:#e1e8ed;fill-opacity:1;stroke:none"/><path d="" id="path6013" style="fill:#000000"/><path d="" id="path6011" style="fill:#000000"/><path d="" id="path6009" style="fill:#000000"/></g><g id="layer12"><path d="M 111.34375 62.46875 C 109.64773 62.49749 107.87256 62.82839 106.25 63.25 C 103.00489 64.09322 100.40625 65.3125 100.40625 65.3125 C 99.384162 65.3125 68.5 64.5 68.5 64.5 C 68.5 64.5 67.37136 65.95583 66.09375 68 C 65.45495 69.02208 64.78159 70.18682 64.1875 71.375 C 63.59342 72.56317 63.08788 73.78195 62.78125 74.90625 C 62.4746 76.03054 62.3992 77.42854 62.4375 79 C 62.47583 80.57145 62.61655 82.3165 62.71875 84.15625 C 62.82095 85.996 62.89624 87.94581 62.78125 89.875 C 62.66627 91.80418 62.36325 93.722749 61.75 95.5625 C 61.4434 96.48237 61.3415 97.51268 61.375 98.625 C 61.40854 99.737306 61.58754 100.93933 61.875 102.15625 C 62.44993 104.59009 63.45807 107.14351 64.53125 109.46875 C 65.60444 111.79399 66.74346 113.89229 67.625 115.40625 C 68.50655 116.92021 69.125 117.84375 69.125 117.84375 L 79.4375 126.09375 C 79.268501 126.13128 78.871272 126.19463 78.78125 126.21875 C 78.45003 126.30755 77.51055 125.90724 76.28125 125.25 C 75.05195 124.59276 73.53596 123.70194 72.0625 122.78125 C 69.11559 120.93986 66.3125 119.03125 66.3125 119.03125 L 58.09375 114.28125 L 64.4375 138 C 64.4375 138 83.342048 157.11171 102.375 176.25 C 108.48063 182.38942 109.29607 183.07564 114.8125 188.59375 C 118.22137 188.00874 121.57698 187.25875 124.84375 186.3125 C 130.51682 184.66925 135.96208 182.53052 141.125 179.875 C 159.21425 170.57091 173.56721 155.26453 181.90625 136.65625 C 181.96935 136.51539 182.06257 136.39124 182.125 136.25 C 183.82639 132.40089 185.3428 128.45478 186.5 124.34375 C 187.17583 121.94282 187.66632 119.4721 188.15625 117 L 137.71875 66.5625 L 136.8125 67.09375 L 138.90625 68.6875 L 139.21875 69.8125 C 139.21875 69.8125 138.89665 74.29474 138.75 78.9375 C 138.74734 79.021851 138.75252 79.103094 138.75 79.1875 C 135.95978 76.143334 133.25634 73.492039 132.0625 72.46875 C 130.63159 71.24225 127.88445 69.74617 124.84375 68.1875 C 121.80305 66.62882 118.49271 65.00187 115.9375 63.46875 C 115.2987 63.08546 114.5554 62.81555 113.78125 62.65625 C 113.0071 62.49695 112.19176 62.45435 111.34375 62.46875 z " id="path6772" style="opacity:0.1;fill:#000000;fill-opacity:1;stroke:none;display:inline"/></g><g id="layer11"><path d="m 100.00001,49.999997 c -28.309715,0 -51.265995,22.951183 -51.265995,51.265993 0,22.6498 14.68927,41.86648 35.05881,48.6453 2.56211,0.47456 3.50274,-1.11212 3.50274,-2.46618 0,-1.22163 -0.0475,-5.26091 -0.0696,-9.54467 -14.26225,3.10119 -17.27175,-6.04872 -17.27175,-6.04872 -2.33205,-5.92478 -5.69217,-7.50127 -5.69217,-7.50127 -4.65136,-3.18184 0.35062,-3.11647 0.35062,-3.11647 5.14799,0.36165 7.85867,5.28382 7.85867,5.28382 4.57241,7.8366 11.99302,5.57077 14.91848,4.26085 0.46097,-3.31258 1.78872,-5.57501 3.25485,-6.85522 -11.38688,-1.29548 -23.35698,-5.69216 -23.35698,-25.33586 0,-5.596234 2.00265,-10.170341 5.28212,-13.760522 -0.53229,-1.291243 -2.28705,-6.505453 0.49748,-13.566963 0,0 4.30499,-1.376987 14.10095,5.255808 4.08936,-1.135887 8.475,-1.705527 12.831785,-1.725902 4.35678,0.02038 8.74581,0.590015 12.84281,1.725902 9.78492,-6.632795 14.08397,-5.255808 14.08397,-5.255808 2.79047,7.06151 1.0357,12.27572 0.50343,13.566963 3.2871,3.590181 5.27532,8.164288 5.27532,13.760522 0,19.69124 -11.99301,24.02594 -23.40875,25.29511 1.8388,1.59092 3.47727,4.71079 3.47727,9.49374 0,6.85946 -0.0586,12.38014 -0.0586,14.06869 0,1.3651 0.92195,2.96281 3.52057,2.46024 20.35936,-6.78646 35.02994,-25.99635 35.02994,-48.63936 0,-28.31481 -22.95288,-51.265993 -51.265985,-51.265993" id="path28-2" style="fill:#424242;fill-opacity:1;fill-rule:evenodd;stroke:none;display:inline"/></g></svg>